<?xml version="1.0" standalone="no"?><!DOCTYPE svg PUBLIC "-//W3C//DTD SVG 1.1//EN" "http://www.w3.org/Graphics/SVG/1.1/DTD/svg11.dtd"><svg t="1690092375572" class="icon" viewBox="0 0 1024 1024" version="1.1" xmlns="http://www.w3.org/2000/svg" p-id="5254" xmlns:xlink="http://www.w3.org/1999/xlink" width="200" height="200"><path d="M512 512m-512 0a512 512 0 1 0 1024 0 512 512 0 1 0-1024 0Z" fill="#6153FF" fill-opacity="0.1" p-id="5255"></path><path d="M473.344 740.394667l-25.6-21.717334h-154.453333a80.042667 80.042667 0 0 1-79.914667-80.042666V378.624a79.957333 79.957333 0 0 1 79.914667-80.042667h437.504a79.872 79.872 0 0 1 79.914666 80.042667v260.010667a80.042667 80.042667 0 0 1-79.914666 80.042666H577.706667l-23.04 21.717334s-33.109333 27.562667-41.941334 27.562666-39.381333-27.562667-39.381333-27.562666z m197.717333-111.658667h15.914667a49.92 49.92 0 0 0 51.626667-51.2v-106.666667h-35.541334v10.794667a35.626667 35.626667 0 0 0-30.421333-13.610667 49.792 49.792 0 0 0-48.768 47.658667v16.085333a46.165333 46.165333 0 0 0 43.52 45.696c30.762667 0 34.944-13.696 34.944-13.696 0.256 33.834667-21.589333 31.872-21.589333 31.872h-9.685334z m-182.912-105.429333a56.618667 56.618667 0 0 0 58.709334 54.186666 56.448 56.448 0 0 0 58.581333-54.186666 56.533333 56.533333 0 0 0-58.581333-54.101334 56.618667 56.618667 0 0 0-58.666667 54.101334z m-136.533333 54.058666a49.450667 49.450667 0 0 0 49.28-48.896A52.352 52.352 0 0 0 354.56 468.053333s-24.277333-0.256-32.725333 14.08V425.642667s-33.578667 0.512-35.797334 0v147.584h35.797334v-8.533334a41.216 41.216 0 0 0 29.909333 12.672z m60.330667-121.216s17.066667 3.797333 17.066666 17.365334v100.053333h34.944v-101.12a48.426667 48.426667 0 0 0-51.84-51.626667z m-79.189334 68.48a21.333333 21.333333 0 0 1 21.333334-21.333333 21.333333 21.333333 0 0 1 21.333333 21.333333 21.333333 21.333333 0 0 1-21.333333 21.333334 21.333333 21.333333 0 0 1-21.205334-21.248z m192-1.322666a22.186667 22.186667 0 0 1 22.186667-22.229334 22.186667 22.186667 0 0 1 22.186667 22.229334 22.186667 22.186667 0 0 1-22.186667 22.186666 22.186667 22.186667 0 0 1-22.4-22.186666z m128 0a21.717333 21.717333 0 0 1 21.717334-21.717334 21.802667 21.802667 0 0 1 21.717333 21.717334 21.845333 21.845333 0 0 1-21.717333 21.802666 21.76 21.76 0 0 1-21.674667-21.802666z" fill="#6153FF" p-id="5256"></path></svg>