<?xml version="1.0" standalone="no"?><!DOCTYPE svg PUBLIC "-//W3C//DTD SVG 1.1//EN" "http://www.w3.org/Graphics/SVG/1.1/DTD/svg11.dtd"><svg t="1690717481686" class="icon" viewBox="0 0 1024 1024" version="1.1" xmlns="http://www.w3.org/2000/svg" p-id="2729" xmlns:xlink="http://www.w3.org/1999/xlink" width="200" height="200"><path d="M790.229333 678.485333l-79.36-79.402666a240.64 240.64 0 0 0 21.76-99.925334 241.92 241.92 0 0 0-268.842666-240.426666v126.848l-0.853334 0.853333-171.093333-171.093333 171.093333-171.093334 0.853334 0.853334V151.466667c8.96-0.682667 17.749333-1.877333 26.88-1.877334a349.482667 349.482667 0 0 1 349.482666 349.525334 347.306667 347.306667 0 0 1-49.92 179.328zM490.666667 741.077333c9.088 0 18.048-0.554667 26.88-1.536V634.026667l0.810666-0.853334 160.213334 174.848-160.213334 174.890667-0.810666-0.853333v-135.253334c-8.96 0.682667-17.749333 1.834667-26.88 1.834667a349.482667 349.482667 0 0 1-349.482667-349.482667c0-64.768 17.92-125.226667 48.64-177.237333L269.397333 401.493333a241.92 241.92 0 0 0 221.269334 339.626667z" p-id="2730" fill="#ffffff"></path></svg>